<svg version="1.1" id="Layer_1" xmlns="http://www.w3.org/2000/svg" xmlns:xlink="http://www.w3.org/1999/xlink" x="0px" y="0px"
	 width="100%" viewBox="0 0 386 194" enable-background="new 0 0 386 194" xml:space="preserve">
<path fill="#FEFEFE" opacity="1.000000" stroke="none" 
	d="
M235.000000,195.000000 
	C156.666672,195.000000 78.833351,195.000000 1.000021,195.000000 
	C1.000014,130.333344 1.000014,65.666702 1.000007,1.000038 
	C129.666641,1.000026 258.333282,1.000026 386.999939,1.000013 
	C386.999939,65.666626 386.999939,130.333252 386.999969,194.999939 
	C336.500000,195.000000 286.000000,195.000000 235.000000,195.000000 
M236.811127,85.275948 
	C242.749435,80.196617 248.597214,75.005257 254.673157,70.096275 
	C256.921265,68.279938 256.955811,66.702347 256.142059,64.139626 
	C254.536636,59.083794 250.176422,57.281372 246.274109,54.903118 
	C243.780655,53.383492 241.123001,52.133320 237.920578,50.434254 
	C238.891968,58.109608 242.798218,62.239738 249.221909,65.085785 
	C239.375259,73.531540 230.251495,81.247177 221.317932,89.177086 
	C220.342651,90.042824 219.759674,92.445236 220.253571,93.593399 
	C220.866531,95.018364 222.651886,96.196678 224.197098,96.874969 
	C225.278152,97.349510 226.807251,96.829247 228.133102,96.716309 
	C247.006882,95.108620 265.878479,93.475227 284.754028,91.888580 
	C298.664001,90.719337 312.575867,89.569481 326.494110,88.505432 
	C329.353119,88.286865 331.609100,87.373253 331.172699,84.215408 
	C330.939484,82.527779 329.780029,80.398415 328.380157,79.530930 
	C316.004822,71.861908 303.464447,64.459839 291.005951,56.924164 
	C268.517151,43.321537 246.051193,29.681150 223.575684,16.056538 
	C223.139694,16.346979 222.703705,16.637423 222.267731,16.927866 
	C224.471298,20.535982 225.813705,25.504244 229.017441,27.532658 
	C250.685608,41.251629 272.744507,54.353630 294.683502,67.644485 
	C302.071808,72.120392 309.478973,76.565201 316.877502,81.024231 
	C316.773468,81.352379 316.669434,81.680527 316.565399,82.008682 
	C289.010162,84.301079 261.454956,86.593475 232.706635,88.985130 
	C234.602341,87.293617 235.457474,86.530602 236.811127,85.275948 
M111.901825,142.357620 
	C112.689804,143.241013 113.436630,144.840103 114.272636,144.888153 
	C118.702713,145.142853 123.155205,145.007797 128.010406,145.007797 
	C127.846161,142.059006 128.376495,137.845581 127.461128,137.503784 
	C123.307846,135.952881 125.302277,132.854843 124.976196,130.461166 
	C124.529411,127.181473 124.775314,123.788483 124.146461,120.556488 
	C122.867966,113.985619 116.909836,110.532196 110.595596,112.693008 
	C108.322762,113.470810 106.351181,115.128952 104.507347,116.227341 
	C100.427185,110.256081 94.556870,114.445107 88.787041,112.934082 
	C89.990646,119.076523 91.768433,124.179329 91.770424,129.282837 
	C91.772385,134.324326 89.979424,139.366531 88.917740,144.689865 
	C96.037384,144.689865 102.410805,144.689865 108.725067,144.689865 
	C108.725067,141.919678 108.725067,139.471649 108.725067,137.116241 
	C107.108345,136.791321 105.713783,136.511047 104.385605,136.244110 
	C104.385605,132.706497 103.956856,129.468613 104.555916,126.433609 
	C104.884254,124.770134 106.947411,123.449089 108.228310,121.973633 
	C109.448967,123.618965 111.542015,125.174416 111.722565,126.926903 
	C112.214294,131.699905 111.897675,136.556183 111.901825,142.357620 
M180.464203,135.510620 
	C182.148529,145.992401 190.680176,148.960236 201.039490,143.258865 
	C206.340317,146.411301 211.499252,144.452286 216.493301,144.936111 
	C216.493301,142.002380 216.493301,139.715683 216.493301,137.428970 
	C216.006973,137.523758 215.520660,137.618546 215.034332,137.713333 
	C214.318573,136.298615 213.148849,134.934967 212.982727,133.458420 
	C212.649414,130.495605 212.959351,127.467079 212.831879,124.473000 
	C212.605667,119.159515 210.166641,115.099190 205.123596,113.248596 
	C197.014252,110.272820 189.252823,111.143120 181.822388,116.147476 
	C182.778625,118.636673 183.631683,120.857277 184.484818,123.078049 
	C194.770828,118.938652 199.044113,119.624596 199.534073,125.234337 
	C189.146515,122.168701 182.420578,125.543083 180.464203,135.510620 
M240.006256,134.467346 
	C240.006256,126.028938 240.006256,117.590530 240.006256,109.191437 
	C242.009277,109.032059 243.444504,108.917862 244.846252,108.806328 
	C244.846252,105.978661 244.846252,103.438530 244.846252,101.062630 
	C236.905075,101.062630 229.319458,101.062630 221.612640,101.062630 
	C221.612640,103.803413 221.612640,106.227470 221.612640,108.805283 
	C223.434021,108.936829 225.026215,109.051826 226.930801,109.189377 
	C226.930801,110.409973 226.932083,111.382240 226.930588,112.354507 
	C226.915451,122.182442 226.984375,132.011536 226.849045,141.837814 
	C226.780731,146.796875 224.737091,150.136505 219.213806,149.262970 
	C219.213806,152.218506 219.213806,154.788910 219.213806,157.265137 
	C231.677368,159.681549 239.576721,153.533417 239.968338,141.448868 
	C240.033051,139.451813 239.996185,137.451447 240.006256,134.467346 
M249.175690,120.895332 
	C245.626587,130.133835 247.611374,138.726532 254.328796,143.204330 
	C261.651764,148.085815 273.225616,146.821426 280.112854,140.276749 
	C278.516846,138.429382 276.916534,136.577042 275.392395,134.812897 
	C266.278687,138.926178 262.235870,138.316193 260.155121,132.243881 
	C263.427765,132.243881 266.541687,132.243896 269.655640,132.243896 
	C272.946442,132.243896 276.237244,132.243881 279.433777,132.243881 
	C281.602692,122.520897 278.574280,116.286903 270.609833,113.497612 
	C262.539246,110.671158 254.723068,113.186661 249.175690,120.895332 
M145.513062,125.517792 
	C144.157074,120.302788 149.070267,122.281639 150.887711,121.099518 
	C150.887711,118.357910 150.887711,115.944344 150.887711,113.399208 
	C149.008575,113.225670 147.415619,113.078560 145.399323,112.892349 
	C145.614487,110.063416 145.807434,107.526527 146.026962,104.640274 
	C152.172073,106.186508 152.702744,101.658829 154.774200,97.705490 
	C152.109650,97.192551 149.918243,96.612587 147.690079,96.369209 
	C138.174194,95.329834 133.230164,99.749802 132.871506,109.202988 
	C132.817474,110.626724 131.225067,111.962715 131.065689,113.418289 
	C130.780136,116.026207 130.438980,118.901779 131.254852,121.275833 
	C131.998001,123.438255 133.672653,134.053711 132.688446,136.156174 
	C131.471634,138.755493 130.533630,141.485321 129.241119,144.749908 
	C136.861008,144.749908 142.906204,144.749908 149.089233,144.749908 
	C149.089233,142.185013 149.089233,139.879150 149.089233,137.573303 
	C148.698364,137.728409 148.307495,137.883514 147.916641,138.038620 
	C147.115402,136.021851 146.057404,134.062180 145.592361,131.970673 
	C145.204788,130.227631 145.512848,128.329910 145.513062,125.517792 
M297.585297,136.374374 
	C297.585297,131.599319 297.585297,126.824265 297.585297,121.860634 
	C299.402954,121.679298 301.156036,121.504402 302.905396,121.329880 
	C302.905396,118.472153 302.905396,115.919640 302.905396,113.363136 
	C300.921753,113.217178 299.282257,113.096535 297.426453,112.959984 
	C297.280548,109.936829 297.140564,107.036072 296.984100,103.793236 
	C292.961090,105.114220 289.387451,106.287659 287.031128,107.061371 
	C285.479004,110.199509 284.423859,112.332870 283.368713,114.466240 
	C282.872253,114.320396 282.375793,114.174561 281.879303,114.028725 
	C282.170013,116.426941 281.919434,120.633133 282.845093,120.910278 
	C286.844299,122.107544 285.534424,124.929619 285.660400,127.309837 
	C285.853943,130.966507 285.793823,134.636734 285.992523,138.292984 
	C286.204773,142.198151 288.086121,145.197220 292.071228,145.728546 
	C295.699036,146.212250 299.442200,145.830994 302.940338,145.830994 
	C302.940338,142.013260 302.940338,139.606033 302.940338,137.713455 
	C301.051239,137.462891 299.546326,137.263290 297.585297,136.374374 
M171.407990,113.824409 
	C170.481277,114.709099 169.554565,115.593781 168.833862,116.281799 
	C164.923828,110.799706 159.703064,114.275139 154.081512,113.485359 
	C159.633911,124.016937 158.484192,134.310516 153.817123,144.785675 
	C160.997421,144.785675 166.742935,144.785675 172.929398,144.785675 
	C172.236862,141.553360 174.839920,137.733002 170.008224,135.989319 
	C169.718460,135.884735 169.780823,134.753845 169.711349,134.097122 
	C168.906876,126.493401 170.098404,124.917221 178.386124,122.552475 
	C178.386124,119.088638 178.386124,115.641678 178.386124,111.394936 
	C175.968704,112.122978 173.990326,112.718796 171.407990,113.824409 
M68.613968,137.169235 
	C68.498421,139.715958 68.382874,142.262665 68.268272,144.788635 
	C74.547256,144.788635 80.148926,144.788635 86.286118,144.788635 
	C85.984322,142.005966 86.358429,137.662750 85.316231,137.291092 
	C82.047493,136.125412 83.117722,133.935593 83.081177,132.076157 
	C82.958649,125.841278 83.034645,119.602501 83.034645,113.520882 
	C77.709633,113.520882 73.137344,113.520882 67.866310,113.520882 
	C68.346107,116.433716 68.099052,119.312416 69.313072,121.297615 
	C71.226196,124.426025 71.811409,133.656647 68.613968,137.169235 
M231.137772,36.438023 
	C233.497803,46.800812 243.452209,48.067745 250.667969,53.454681 
	C249.369171,40.420712 238.488235,38.364464 229.993469,33.597324 
	C230.279480,34.315639 230.565506,35.033955 231.137772,36.438023 
M83.909760,103.641403 
	C83.570976,102.714485 83.399689,101.674736 82.864426,100.880188 
	C80.546165,97.439026 77.146103,96.816360 73.724297,98.503136 
	C70.631119,100.027924 69.138863,102.855148 70.808022,106.394974 
	C72.616531,110.230316 76.106552,111.183578 79.547417,109.775284 
	C81.422844,109.007698 82.488831,106.262398 83.909760,103.641403 
z"/>
<path fill="#834AFF" opacity="1.000000" stroke="none" 
	d="
M236.561859,85.521767 
	C235.457474,86.530602 234.602341,87.293617 232.706635,88.985130 
	C261.454956,86.593475 289.010162,84.301079 316.565399,82.008682 
	C316.669434,81.680527 316.773468,81.352379 316.877502,81.024231 
	C309.478973,76.565201 302.071808,72.120392 294.683502,67.644485 
	C272.744507,54.353630 250.685608,41.251629 229.017441,27.532658 
	C225.813705,25.504244 224.471298,20.535982 222.267731,16.927866 
	C222.703705,16.637423 223.139694,16.346979 223.575684,16.056538 
	C246.051193,29.681150 268.517151,43.321537 291.005951,56.924164 
	C303.464447,64.459839 316.004822,71.861908 328.380157,79.530930 
	C329.780029,80.398415 330.939484,82.527779 331.172699,84.215408 
	C331.609100,87.373253 329.353119,88.286865 326.494110,88.505432 
	C312.575867,89.569481 298.664001,90.719337 284.754028,91.888580 
	C265.878479,93.475227 247.006882,95.108620 228.133102,96.716309 
	C226.807251,96.829247 225.278152,97.349510 224.197098,96.874969 
	C222.651886,96.196678 220.866531,95.018364 220.253571,93.593399 
	C219.759674,92.445236 220.342651,90.042824 221.317932,89.177086 
	C230.251495,81.247177 239.375259,73.531540 249.221909,65.085785 
	C242.798218,62.239738 238.891968,58.109608 237.920578,50.434254 
	C241.123001,52.133320 243.780655,53.383492 246.274109,54.903118 
	C250.176422,57.281372 254.536636,59.083794 256.142059,64.139626 
	C256.955811,66.702347 256.921265,68.279938 254.673157,70.096275 
	C248.597214,75.005257 242.749435,80.196617 236.561859,85.521767 
z"/>
<path fill="#060606" opacity="1.000000" stroke="none" 
	d="
M111.901596,141.868546 
	C111.897675,136.556183 112.214294,131.699905 111.722565,126.926903 
	C111.542015,125.174416 109.448967,123.618965 108.228317,121.973633 
	C106.947411,123.449089 104.884254,124.770134 104.555916,126.433609 
	C103.956856,129.468613 104.385605,132.706497 104.385605,136.244110 
	C105.713783,136.511047 107.108345,136.791321 108.725067,137.116241 
	C108.725067,139.471649 108.725067,141.919678 108.725067,144.689865 
	C102.410805,144.689865 96.037384,144.689865 88.917740,144.689865 
	C89.979424,139.366531 91.772385,134.324326 91.770424,129.282837 
	C91.768433,124.179329 89.990646,119.076523 88.787041,112.934082 
	C94.556870,114.445107 100.427185,110.256081 104.507347,116.227341 
	C106.351181,115.128952 108.322762,113.470810 110.595596,112.693008 
	C116.909836,110.532196 122.867966,113.985619 124.146461,120.556488 
	C124.775314,123.788483 124.529411,127.181473 124.976196,130.461166 
	C125.302277,132.854843 123.307846,135.952881 127.461128,137.503784 
	C128.376495,137.845581 127.846161,142.059006 128.010406,145.007797 
	C123.155205,145.007797 118.702713,145.142853 114.272636,144.888153 
	C113.436630,144.840103 112.689804,143.241013 111.901596,141.868546 
z"/>
<path fill="#070707" opacity="1.000000" stroke="none" 
	d="
M180.513428,135.131439 
	C182.420578,125.543083 189.146515,122.168701 199.534073,125.234337 
	C199.044113,119.624596 194.770828,118.938652 184.484818,123.078049 
	C183.631683,120.857277 182.778625,118.636673 181.822388,116.147476 
	C189.252823,111.143120 197.014252,110.272820 205.123596,113.248596 
	C210.166641,115.099190 212.605667,119.159515 212.831879,124.473000 
	C212.959351,127.467079 212.649414,130.495605 212.982727,133.458420 
	C213.148849,134.934967 214.318573,136.298615 215.034332,137.713333 
	C215.520660,137.618546 216.006973,137.523758 216.493301,137.428970 
	C216.493301,139.715683 216.493301,142.002380 216.493301,144.936111 
	C211.499252,144.452286 206.340317,146.411301 201.039490,143.258865 
	C190.680176,148.960236 182.148529,145.992401 180.513428,135.131439 
M196.276535,137.928726 
	C197.493286,136.658585 198.710022,135.388443 199.926758,134.118301 
	C198.828552,133.342850 197.705978,131.917755 196.638367,131.957809 
	C195.329361,132.006912 194.066330,133.281570 192.783432,134.026398 
	C193.677155,135.328079 194.570877,136.629761 196.276535,137.928726 
z"/>
<path fill="#030303" opacity="1.000000" stroke="none" 
	d="
M240.006256,134.959991 
	C239.996185,137.451447 240.033051,139.451813 239.968338,141.448868 
	C239.576721,153.533417 231.677368,159.681549 219.213806,157.265137 
	C219.213806,154.788910 219.213806,152.218506 219.213806,149.262970 
	C224.737091,150.136505 226.780731,146.796875 226.849045,141.837814 
	C226.984375,132.011536 226.915451,122.182442 226.930588,112.354507 
	C226.932083,111.382240 226.930801,110.409973 226.930801,109.189377 
	C225.026215,109.051826 223.434021,108.936829 221.612640,108.805283 
	C221.612640,106.227470 221.612640,103.803413 221.612640,101.062630 
	C229.319458,101.062630 236.905075,101.062630 244.846252,101.062630 
	C244.846252,103.438530 244.846252,105.978661 244.846252,108.806328 
	C243.444504,108.917862 242.009277,109.032059 240.006256,109.191437 
	C240.006256,117.590530 240.006256,126.028938 240.006256,134.959991 
z"/>
<path fill="#060606" opacity="1.000000" stroke="none" 
	d="
M249.382233,120.579117 
	C254.723068,113.186661 262.539246,110.671158 270.609833,113.497612 
	C278.574280,116.286903 281.602692,122.520897 279.433777,132.243881 
	C276.237244,132.243881 272.946442,132.243896 269.655640,132.243896 
	C266.541687,132.243896 263.427765,132.243881 260.155121,132.243881 
	C262.235870,138.316193 266.278687,138.926178 275.392395,134.812897 
	C276.916534,136.577042 278.516846,138.429382 280.112854,140.276749 
	C273.225616,146.821426 261.651764,148.085815 254.328796,143.204330 
	C247.611374,138.726532 245.626587,130.133835 249.382233,120.579117 
M261.698944,122.176956 
	C261.081207,123.258011 260.463440,124.339058 259.606903,125.838020 
	C263.164490,125.838020 266.075226,125.838020 269.225220,125.838020 
	C268.771179,121.016754 266.219604,120.268303 261.698944,122.176956 
z"/>
<path fill="#060606" opacity="1.000000" stroke="none" 
	d="
M145.512939,126.009247 
	C145.512848,128.329910 145.204788,130.227631 145.592361,131.970673 
	C146.057404,134.062180 147.115402,136.021851 147.916641,138.038620 
	C148.307495,137.883514 148.698364,137.728409 149.089233,137.573303 
	C149.089233,139.879150 149.089233,142.185013 149.089233,144.749908 
	C142.906204,144.749908 136.861008,144.749908 129.241119,144.749908 
	C130.533630,141.485321 131.471634,138.755493 132.688446,136.156174 
	C133.672653,134.053711 131.998001,123.438255 131.254852,121.275833 
	C130.438980,118.901779 130.780136,116.026207 131.065689,113.418289 
	C131.225067,111.962715 132.817474,110.626724 132.871506,109.202988 
	C133.230164,99.749802 138.174194,95.329834 147.690079,96.369209 
	C149.918243,96.612587 152.109650,97.192551 154.774200,97.705490 
	C152.702744,101.658829 152.172073,106.186508 146.026962,104.640274 
	C145.807434,107.526527 145.614487,110.063416 145.399323,112.892349 
	C147.415619,113.078560 149.008575,113.225670 150.887711,113.399208 
	C150.887711,115.944344 150.887711,118.357910 150.887711,121.099518 
	C149.070267,122.281639 144.157074,120.302788 145.512939,126.009247 
z"/>
<path fill="#050505" opacity="1.000000" stroke="none" 
	d="
M297.813354,136.719025 
	C299.546326,137.263290 301.051239,137.462891 302.940338,137.713455 
	C302.940338,139.606033 302.940338,142.013260 302.940338,145.830994 
	C299.442200,145.830994 295.699036,146.212250 292.071228,145.728546 
	C288.086121,145.197220 286.204773,142.198151 285.992523,138.292984 
	C285.793823,134.636734 285.853943,130.966507 285.660400,127.309837 
	C285.534424,124.929619 286.844299,122.107544 282.845093,120.910278 
	C281.919434,120.633133 282.170013,116.426941 281.879303,114.028725 
	C282.375793,114.174561 282.872253,114.320396 283.368713,114.466240 
	C284.423859,112.332870 285.479004,110.199509 287.031128,107.061371 
	C289.387451,106.287659 292.961090,105.114220 296.984100,103.793236 
	C297.140564,107.036072 297.280548,109.936829 297.426453,112.959984 
	C299.282257,113.096535 300.921753,113.217178 302.905396,113.363136 
	C302.905396,115.919640 302.905396,118.472153 302.905396,121.329880 
	C301.156036,121.504402 299.402954,121.679298 297.585297,121.860634 
	C297.585297,126.824265 297.585297,131.599319 297.813354,136.719025 
z"/>
<path fill="#070707" opacity="1.000000" stroke="none" 
	d="
M171.709961,113.569519 
	C173.990326,112.718796 175.968704,112.122978 178.386124,111.394936 
	C178.386124,115.641678 178.386124,119.088638 178.386124,122.552475 
	C170.098404,124.917221 168.906876,126.493401 169.711349,134.097122 
	C169.780823,134.753845 169.718460,135.884735 170.008224,135.989319 
	C174.839920,137.733002 172.236862,141.553360 172.929398,144.785675 
	C166.742935,144.785675 160.997421,144.785675 153.817123,144.785675 
	C158.484192,134.310516 159.633911,124.016937 154.081512,113.485359 
	C159.703064,114.275139 164.923828,110.799706 168.833862,116.281799 
	C169.554565,115.593781 170.481277,114.709099 171.709961,113.569519 
z"/>
<path fill="#060606" opacity="1.000000" stroke="none" 
	d="
M69.025894,136.987320 
	C71.811409,133.656647 71.226196,124.426025 69.313072,121.297615 
	C68.099052,119.312416 68.346107,116.433716 67.866310,113.520882 
	C73.137344,113.520882 77.709633,113.520882 83.034645,113.520882 
	C83.034645,119.602501 82.958649,125.841278 83.081177,132.076157 
	C83.117722,133.935593 82.047493,136.125412 85.316231,137.291092 
	C86.358429,137.662750 85.984322,142.005966 86.286118,144.788635 
	C80.148926,144.788635 74.547256,144.788635 68.268272,144.788635 
	C68.382874,142.262665 68.498421,139.715958 69.025894,136.987320 
z"/>
<path fill="#8C58FF" opacity="1.000000" stroke="none" 
	d="
M230.994659,36.095146 
	C230.565506,35.033955 230.279480,34.315639 229.993469,33.597324 
	C238.488235,38.364464 249.369171,40.420712 250.667969,53.454681 
	C243.452209,48.067745 233.497803,46.800812 230.994659,36.095146 
z"/>
<path fill="#0A0A0A" opacity="1.000000" stroke="none" 
	d="
M83.914818,104.025223 
	C82.488831,106.262398 81.422844,109.007698 79.547417,109.775284 
	C76.106552,111.183578 72.616531,110.230316 70.808022,106.394974 
	C69.138863,102.855148 70.631119,100.027924 73.724297,98.503136 
	C77.146103,96.816360 80.546165,97.439026 82.864426,100.880188 
	C83.399689,101.674736 83.570976,102.714485 83.914818,104.025223 
z"/>
<path fill="#F4F4F4" opacity="1.000000" stroke="none" 
	d="
M195.870575,137.930084 
	C194.570877,136.629761 193.677155,135.328079 192.783432,134.026398 
	C194.066330,133.281570 195.329361,132.006912 196.638367,131.957809 
	C197.705978,131.917755 198.828552,133.342850 199.926758,134.118301 
	C198.710022,135.388443 197.493286,136.658585 195.870575,137.930084 
z"/>
<path fill="#F6F6F6" opacity="1.000000" stroke="none" 
	d="
M262.027985,121.945404 
	C266.219604,120.268303 268.771179,121.016754 269.225220,125.838020 
	C266.075226,125.838020 263.164490,125.838020 259.606903,125.838020 
	C260.463440,124.339058 261.081207,123.258011 262.027985,121.945404 
z"/>
</svg>