<?xml version="1.0" encoding="UTF-8"?>
<svg width="160" height="40" viewBox="0 0 160 40" fill="none" xmlns="http://www.w3.org/2000/svg">
  <rect width="160" height="40" rx="12" fill="url(#paint0_linear)" />
  <path d="M34.642 11.2c-2.846 0-5.15 2.304-5.15 5.15v7.3c0 2.846 2.304 5.15 5.15 5.15h5.346c2.93 0 5.306-2.376 5.306-5.306 0-2.91-2.28-5.184-5.09-5.3l-.098-.002h-4.198v-1.842h4.198c1.916 0 3.468-1.552 3.468-3.468 0-1.916-1.552-3.468-3.468-3.468H34.642zm19.02 0c-2.846 0-5.15 2.304-5.15 5.15v7.3c0 2.846 2.304 5.15 5.15 5.15h4.198c2.846 0 5.15-2.304 5.15-5.15v-7.3c0-2.846-2.304-5.15-5.15-5.15h-4.198zm23.534 0c-2.846 0-5.15 2.304-5.15 5.15v2.99l-5.156-6.942c-.96-1.294-2.466-2.052-4.068-2.052-2.85 0-5.16 2.31-5.16 5.16v7.154c0 2.85 2.31 5.16 5.16 5.16 1.602 0 3.108-.758 4.068-2.052l5.156-6.942v2.99c0 2.846 2.304 5.15 5.15 5.15 2.846 0 5.15-2.304 5.15-5.15v-7.306c0-2.84-2.31-5.152-5.15-5.152zm-55.334 1.82c1.284 0 2.323 1.04 2.323 2.324 0 1.284-1.039 2.324-2.323 2.324-1.284 0-2.323-1.04-2.323-2.324 0-1.284 1.039-2.324 2.323-2.324z" fill="white" opacity="0.9"/>
  <path d="M19.53 9.82c-5.37 0-9.74 4.37-9.74 9.74 0 4.49 3.04 8.29 7.19 9.45l-.7 4.33c-.09.54.48.94.95.67l9.87-5.72a9.72 9.72 0 0 0 2.17-6.73c0-5.37-4.37-9.74-9.74-9.74z" fill="white" opacity="0.95"/>
  <defs>
    <linearGradient id="paint0_linear" x1="12" y1="0" x2="148" y2="40" gradientUnits="userSpaceOnUse">
      <stop stop-color="#6C5CE7" />
      <stop offset="1" stop-color="#00B894" />
    </linearGradient>
  </defs>
</svg>
